PathFileType	4	(X/Y/Z)	Walk7.trc
DataRate	CameraRate	NumFrames	NumMarkers	Units	OrigDataRate	OrigDataStartFrame	OrigNumFrames
200.000000	200.000000	4	59	mm	200.000000	409	565
Frame#	Times		CLAV		STRN		RBack		RASI		RACR1		RUA1		RElbow		RFA1		RWRU		LACR1		LUA1		LFA1		LCAR		RTH1		RTH3		RTH2		RLFC		LTH1		LTH3		LLFC		LTB1		LTB3		LTB4		LMT1		LASI		LTH4		RCAR		LTH2		C7		LTB2		LToe		T10		LMMAL		RFHD		RTH4		LFHD		RPSI		LMT5		LLMAL		RWRR		LElbowM		LPSI		RBHD		RTB1		LElbow		LBHD		RTB2		RTB4		RTB3		RMT1		RToe		LWRU		LWRR		RMMAL		RLMAL		RMT5		RCAL		RElbowM		LCAL
			X1	Y1	Z1	X2	Y2	Z2	X3	Y3	Z3	X4	Y4	Z4	X5	Y5	Z5	X6	Y6	Z6	X7	Y7	Z7	X8	Y8	Z8	X9	Y9	Z9	X10	Y10	Z10	X11	Y11	Z11	X12	Y12	Z12	X13	Y13	Z13	X14	Y14	Z14	X15	Y15	Z15	X16	Y16	Z16	X17	Y17	Z17	X18	Y18	Z18	X19	Y19	Z19	X20	Y20	Z20	X21	Y21	Z21	X22	Y22	Z22	X23	Y23	Z23	X24	Y24	Z24	X25	Y25	Z25	X26	Y26	Z26	X27	Y27	Z27	X28	Y28	Z28	X29	Y29	Z29	X30	Y30	Z30	X31	Y31	Z31	X32	Y32	Z32	X33	Y33	Z33	X34	Y34	Z34	X35	Y35	Z35	X36	Y36	Z36	X37	Y37	Z37	X38	Y38	Z38	X39	Y39	Z39	X40	Y40	Z40	X41	Y41	Z41	X42	Y42	Z42	X43	Y43	Z43	X44	Y44	Z44	X45	Y45	Z45	X46	Y46	Z46	X47	Y47	Z47	X48	Y48	Z48	X49	Y49	Z49	X50	Y50	Z50	X51	Y51	Z51	X52	Y52	Z52	X53	Y53	Z53	X54	Y54	Z54	X55	Y55	Z55	X56	Y56	Z56	X57	Y57	Z57	X58	Y58	Z58	X59	Y59	Z59

409	2.045	238.27	1346.9	14.144	316.01	1122.6	6.6384	76.838	1315.7	124.62	274.62	953.46	154.02	198.45	1351.7	190.46	186.42	1138.3	246.68	167.35	1031.2	268.02	236.58	894.06	263.88	216.72	783.78	281.33	167.52	1365	-150.59	151.52	1159	-205.67	229.35	931.68	-232.67	291.19	785.08	-233.18	196.31	752.19	198.73	223.37	569.31	156.44	273.91	679.75	149.53	232.29	464.77	142.72	184.62	736.93	-149.25	243.82	560.48	-128.02	252.1	465.99	-117.68	229.19	366.34	-43.724	89.904	240.23	-43.674	158.65	301.38	-47.773	96.818	41.43	-72.547	251.34	943.89	-120.96	214.2	644.5	-140.17	264.77	746.7	271.08	285.02	668.17	-119.05	112.85	1423	28.754	138.76	323.56	-113.76	73.78	66.113	-45.082	78.098	1140.6	25.368	8.2186	184.21	-7.856	280.01	1596.5	54.836	209.26	660.63	176.56	268.3	1592.7	-17.4	57.04	984.88	93.618	28.175	73.624	-107.03	-17.647	184.46	-86.716	259.96	792.34	221.27	128.68	1020.1	-156.23	45.966	973	-20.641	114.23	1549.9	103.92	244.07	341.68	63.456	144.35	1038.7	-224.86	99.23	1554.3	-21.981	217.61	253.48	133.19	221.84	251.28	61.637	199.77	161.67	59.087	301.21	38.042	66.053	344.45	29.326	100.36	232.74	810.31	-243.38	278.93	826.86	-190.86	162.26	74.876	30.777	146.04	60.238	110.06	254.42	21.469	149.8	97.786	25.759	63.758	136.7	1012.1	190.06	-70.433	194.89	-30.333
410	2.05	243.53	1347.6	14.249	321.2	1123.4	7.0332	82.092	1316.5	124.77	279.88	954.42	154.42	203.64	1352.7	190.55	192.51	1139.2	246.99	174.18	1032.1	268.47	244.7	895.58	263.52	226.03	785.08	280.87	172.8	1365.6	-150.53	156.11	1159.5	-205.26	231.86	931.39	-232.23	291.9	783.89	-232.78	201.23	752.53	198.61	226.11	569.39	156.36	277.73	679.31	149.09	233.86	464.65	142.72	190.98	738.11	-149.38	251.56	562.15	-128.11	260.67	467.52	-117.6	239.64	367.44	-43.638	102.75	238.76	-43.273	170.28	301.17	-47.531	114.31	40.799	-72.191	257.04	944.98	-120.73	221.3	645.93	-140.36	274.5	748.62	270.33	291.91	670.2	-119.29	118.15	1423.7	28.758	149.85	322.98	-113.46	90.678	64.918	-44.691	83.414	1141.3	25.656	22.199	181.1	-7.3076	285.49	1597.1	54.844	213.05	660.86	176.42	273.82	1593.3	-17.398	62.386	985.53	93.652	44.86	71.334	-106.56	-3.7025	180.81	-86.124	268.89	794.23	220.61	132.43	1020.9	-155.53	51.416	973.71	-20.614	119.63	1550.7	103.84	245.08	341.46	63.441	148.05	1039.3	-224.24	104.73	1555.1	-22.085	218.29	253.34	133.17	222.52	251.14	61.62	200.13	161.6	59.043	301.2	38.021	66.076	344.45	29.326	100.4	233.85	810	-243.17	280.13	825.85	-190.47	162.35	74.919	30.73	146.1	60.338	110	254.41	21.471	149.83	97.789	25.901	63.653	142.9	1012.9	190.87	-56.829	189.87	-29.667
411	2.055	248.78	1348.3	14.335	326.39	1124.2	7.434	87.345	1317.3	124.91	285.16	955.33	154.75	208.84	1353.7	190.62	198.58	1140.2	247.3	180.97	1033	268.92	252.78	897.09	263.17	235.31	786.38	280.39	178.07	1366.1	-150.49	160.71	1159.9	-204.86	234.34	931.07	-231.82	292.57	782.69	-232.43	206.16	752.85	198.48	228.83	569.46	156.28	281.56	678.83	148.66	235.45	464.53	142.71	197.33	739.25	-149.52	259.26	563.79	-128.21	269.15	468.98	-117.51	250.03	368.49	-43.553	115.68	237.17	-42.908	181.95	300.87	-47.308	131.99	40.149	-71.909	262.77	946.02	-120.45	228.37	647.33	-140.56	284.2	750.55	269.57	298.74	672.18	-119.49	123.44	1424.4	28.74	160.97	322.29	-113.18	107.76	63.689	-44.386	88.722	1141.9	25.928	36.355	177.84	-6.8171	290.96	1597.7	54.834	216.82	661.07	176.27	279.34	1593.9	-17.415	67.737	986.13	93.685	61.751	68.973	-106.16	10.429	176.99	-85.589	277.79	796.14	219.94	136.2	1021.6	-154.83	56.851	974.37	-20.585	125.03	1551.4	103.74	246.09	341.24	63.425	151.75	1039.8	-223.63	110.22	1555.8	-22.204	218.97	253.2	133.15	223.2	251	61.602	200.49	161.53	58.996	301.2	38	66.098	344.45	29.324	100.44	234.93	809.68	-242.98	281.31	824.83	-190.14	162.45	74.966	30.681	146.17	60.445	109.93	254.39	21.475	149.85	97.795	26.054	63.546	149.17	1013.7	191.66	-42.999	184.62	-29.059
412	2.06	254.03	1348.9	14.402	331.57	1124.9	7.8387	92.599	1318	125.04	290.46	956.2	155.01	214.05	1354.6	190.67	204.64	1141.1	247.6	187.72	1033.9	269.36	260.82	898.6	262.83	244.54	787.67	279.86	183.34	1366.6	-150.47	165.32	1160.3	-204.49	236.81	930.72	-231.44	293.19	781.46	-232.13	211.06	753.13	198.35	231.55	569.51	156.19	285.38	678.31	148.23	237.05	464.41	142.7	203.68	740.34	-149.66	266.89	565.39	-128.32	277.53	470.38	-117.41	260.38	369.48	-43.468	128.72	235.49	-42.582	193.64	300.5	-47.106	149.85	39.496	-71.721	268.52	947	-120.13	235.42	648.69	-140.78	293.85	752.49	268.79	305.5	674.11	-119.64	128.73	1425	28.702	172.12	321.51	-112.92	125.03	62.438	-44.18	94.025	1142.5	26.184	50.691	174.44	-6.3862	296.44	1598.2	54.805	220.59	661.24	176.11	284.85	1594.4	-17.451	73.091	986.68	93.718	78.837	66.559	-105.85	24.746	173.03	-85.11	286.67	798.05	219.25	139.98	1022.2	-154.15	62.272	974.99	-20.553	130.43	1552.1	103.63	247.11	341.01	63.407	155.45	1040.3	-223.04	115.7	1556.5	-22.338	219.66	253.06	133.11	223.89	250.85	61.579	200.87	161.46	58.945	301.2	37.979	66.118	344.45	29.322	100.48	235.98	809.34	-242.81	282.48	823.79	-189.85	162.56	75.015	30.628	146.23	60.558	109.86	254.38	21.48	149.87	97.806	26.217	63.439	155.49	1014.4	192.44	-28.934	179.16	-28.505
